<svg width="14" height="14" viewBox="0 0 14 14" fill="none" xmlns="http://www.w3.org/2000/svg">
<g clip-path="url(#clip0_517_8961)">
<path d="M7.00034 0.411621C5.21054 0.411621 4.98727 0.420039 4.28453 0.451151C3.73793 0.46254 3.19717 0.566113 2.68505 0.757503C2.2453 0.922787 1.84695 1.18211 1.51783 1.51735C1.1823 1.84622 0.922935 2.24464 0.757992 2.68456C0.566336 3.19661 0.462755 3.73741 0.451639 4.28404C0.418698 4.98678 0.412109 5.21005 0.412109 6.99986C0.412109 8.78966 0.420528 9.01293 0.451639 9.71567C0.463084 10.2623 0.566655 10.803 0.757992 11.3152C0.923402 11.7548 1.18271 12.1532 1.51783 12.4824C1.84683 12.8177 2.24522 13.0771 2.68505 13.2422C3.1972 13.4335 3.73794 13.5371 4.28453 13.5486C4.98727 13.5815 5.21054 13.5881 7.00034 13.5881C8.79015 13.5881 9.01342 13.58 9.71616 13.5486C10.2627 13.5368 10.8034 13.4333 11.3156 13.2422C11.7534 13.073 12.151 12.8142 12.4828 12.4823C12.8147 12.1505 13.0735 11.7529 13.2427 11.3152C13.434 10.8031 13.5376 10.2625 13.5491 9.71604C13.582 9.01293 13.5886 8.78966 13.5886 6.99986C13.5886 5.21005 13.5805 4.98678 13.5491 4.28404C13.5374 3.73747 13.4338 3.19676 13.2427 2.68456C13.0772 2.24491 12.8179 1.8466 12.4829 1.51735C12.1541 1.18169 11.7556 0.922308 11.3156 0.757503C10.8037 0.565943 10.263 0.462364 9.71653 0.451151C9.01342 0.418209 8.79015 0.411621 7.00034 0.411621ZM7.00034 1.5975C8.75721 1.5975 8.96876 1.60629 9.66309 1.6363C10.0806 1.6413 10.4942 1.71832 10.8856 1.86396C11.1702 1.97273 11.4286 2.14025 11.6441 2.35562C11.8596 2.57099 12.0273 2.82937 12.1362 3.1139C12.2814 3.50537 12.358 3.9189 12.3628 4.33638C12.3939 5.0318 12.3994 5.24007 12.3994 6.99912C12.3994 8.75818 12.3914 8.96754 12.3588 9.66187C12.3511 10.0795 12.2729 10.4928 12.1275 10.8844C12.0203 11.1702 11.8519 11.4292 11.6341 11.6431C11.4211 11.8612 11.1623 12.0293 10.8764 12.135C10.4833 12.2802 10.0682 12.3568 9.64918 12.3616C8.94973 12.3927 8.74403 12.3982 6.98168 12.3982C5.21933 12.3982 5.01289 12.3901 4.31417 12.3576C3.89489 12.3499 3.47989 12.2717 3.08657 12.1262C2.80043 12.0205 2.54165 11.8519 2.32929 11.6329C2.1089 11.4213 1.93987 11.1622 1.83517 10.8752C1.69005 10.4819 1.6121 10.0671 1.60458 9.64796C1.57969 8.9562 1.57091 8.74281 1.57091 6.98851C1.57091 5.23421 1.57969 5.01973 1.60458 4.31954C1.61208 3.90066 1.69003 3.48604 1.83517 3.09303C1.93827 2.80517 2.10751 2.54553 2.32929 2.33502C2.54057 2.11452 2.80073 1.94677 3.08876 1.84529C3.47907 1.69906 3.89157 1.62082 4.30832 1.61397C5.0085 1.58909 5.2142 1.58103 6.97582 1.58103L7.00034 1.5975ZM7.00034 3.6168C6.33124 3.6168 5.67716 3.81521 5.12082 4.18695C4.56448 4.55868 4.13086 5.08704 3.87481 5.70522C3.61875 6.32339 3.55175 7.00361 3.68229 7.65986C3.81283 8.31611 4.13503 8.91891 4.60816 9.39204C5.08129 9.86517 5.68409 10.1874 6.34034 10.3179C6.99659 10.4484 7.67681 10.3815 8.29499 10.1254C8.91316 9.86934 9.44152 9.43572 9.81326 8.87938C10.185 8.32304 10.3834 7.66896 10.3834 6.99986C10.3835 6.55557 10.296 6.11563 10.126 5.70516C9.95598 5.29469 9.70679 4.92172 9.39264 4.60757C9.07848 4.29341 8.70552 4.04422 8.29504 3.87422C7.88457 3.70422 7.44463 3.61675 7.00034 3.6168ZM7.00034 9.19594C6.566 9.19594 6.14141 9.06714 5.78027 8.82583C5.41913 8.58452 5.13765 8.24154 4.97143 7.84026C4.80522 7.43898 4.76173 6.99742 4.84646 6.57142C4.9312 6.14543 5.14036 5.75412 5.44748 5.44699C5.75461 5.13987 6.14591 4.93071 6.57191 4.84598C6.99791 4.76124 7.43947 4.80473 7.84075 4.97094C8.24203 5.13716 8.58501 5.41864 8.82632 5.77978C9.06763 6.14092 9.19642 6.56551 9.19642 6.99986C9.19642 7.58229 8.96505 8.14087 8.55321 8.55272C8.14136 8.96456 7.58278 9.19594 7.00034 9.19594ZM11.308 3.4832C11.3081 3.6396 11.2619 3.79252 11.1751 3.92263C11.0883 4.05274 10.9649 4.15418 10.8204 4.21413C10.676 4.27408 10.517 4.28984 10.3636 4.25942C10.2102 4.229 10.0692 4.15376 9.95859 4.04322C9.84795 3.93269 9.77259 3.79182 9.74202 3.63844C9.71146 3.48506 9.72707 3.32606 9.78689 3.18156C9.8467 3.03706 9.94803 2.91354 10.0781 2.82664C10.2081 2.73973 10.361 2.69335 10.5174 2.69335C10.7269 2.69354 10.9277 2.7768 11.0759 2.92486C11.2241 3.07292 11.3076 3.27371 11.308 3.4832Z" fill="#07574D"/>
</g>
<defs>
<clipPath id="clip0_517_8961">
<rect width="13.1765" height="13.1765" fill="white" transform="translate(0.412109 0.411621)"/>
</clipPath>
</defs>
</svg>
