<svg width="40" height="33" viewBox="0 0 40 33" fill="none" xmlns="http://www.w3.org/2000/svg">
<path d="M18.1721 3.70773L11.0104 17.0225L6.87472 18.1321C7.34545 17.2579 7.88342 16.5182 8.48864 15.9129C9.16108 15.3077 9.86717 15.0051 10.6069 15.0051C12.3553 15.0051 13.9356 15.7449 15.3478 17.2243C16.8272 18.7036 17.5669 20.5529 17.5669 22.7721C17.5669 25.1257 16.76 27.1767 15.146 28.9251C13.5321 30.6063 11.5484 31.4469 9.19473 31.4469C6.90834 31.4469 4.92458 30.6063 3.24342 28.9251C1.56226 27.244 0.72168 25.1929 0.72168 22.7721C0.72168 21.8306 0.923421 20.721 1.3269 19.4434C1.73038 18.0984 2.47008 16.4173 3.54603 14.3999L11.313 0.076416L18.1721 3.70773ZM39.8591 3.70773L32.6973 17.0225L28.5617 18.1321C29.0324 17.2579 29.5704 16.5182 30.1756 15.9129C30.7808 15.3077 31.4869 15.0051 32.2939 15.0051C34.0423 15.0051 35.6226 15.7449 37.0347 17.2243C38.5141 18.7036 39.2539 20.5529 39.2539 22.7721C39.2539 25.1257 38.4133 27.1767 36.7321 28.9251C35.1182 30.6063 33.1345 31.4469 30.7808 31.4469C28.5617 31.4469 26.6115 30.6063 24.9304 28.9251C23.2493 27.244 22.4086 25.1929 22.4086 22.7721C22.4086 21.8306 22.6104 20.721 23.0139 19.4434C23.4173 18.0984 24.1571 16.4173 25.233 14.3999L33 0.076416L39.8591 3.70773Z" fill="#07574D"/>
</svg>
