<svg width="20" height="20" viewBox="0 0 20 20" fill="none" xmlns="http://www.w3.org/2000/svg">
<path fill-rule="evenodd" clip-rule="evenodd" d="M8.3286 10.6863L6.50659 10.079C4.59855 9.44295 3.64453 9.12494 3.64453 8.54053C3.64453 7.95612 4.59855 7.63812 6.50659 7.0021L6.50659 7.0021L13.409 4.70129C14.7516 4.25377 15.4229 4.03001 15.7772 4.38435C16.1316 4.73869 15.9078 5.40997 15.4603 6.75252L13.1595 13.655C12.5234 15.563 12.2054 16.517 11.621 16.517C11.0366 16.517 10.7186 15.563 10.0826 13.655L9.47527 11.833L13.0052 8.30306C13.3218 7.98641 13.3218 7.47303 13.0052 7.15638C12.6885 6.83973 12.1752 6.83973 11.8585 7.15638L8.3286 10.6863Z" fill="white"/>
</svg>
